<?xml version="1.0" standalone="no"?>
<!DOCTYPE svg PUBLIC "-//W3C//DTD SVG 20010904//EN"
 "http://www.w3.org/TR/2001/REC-SVG-20010904/DTD/svg10.dtd">
<svg version="1.0" xmlns="http://www.w3.org/2000/svg"
 width="1322.000000pt" height="1072.000000pt" viewBox="0 0 1322.000000 1072.000000"
 preserveAspectRatio="xMidYMid meet">

<g transform="translate(0.000000,1072.000000) scale(0.100000,-0.100000)"
fill="#000000" stroke="none">
<path d="M10532 9562 l-752 -397 -352 -275 c-193 -151 -521 -408 -729 -570
l-377 -295 -234 -265 c-128 -146 -439 -497 -689 -780 -251 -284 -463 -527
-471 -540 -9 -14 -22 -58 -29 -97 -7 -40 -15 -73 -18 -73 -4 0 -15 16 -25 35
l-19 35 42 92 c41 92 41 95 40 203 l0 110 -73 115 -72 115 -126 3 -126 3 -91
-127 -91 -127 0 -93 c0 -91 1 -96 46 -186 l46 -93 -22 -50 -23 -50 -8 30 c-4
17 -13 56 -19 87 -11 58 -13 59 -713 852 l-702 795 -700 547 c-385 301 -716
559 -735 574 -19 15 -371 203 -781 419 l-746 391 -387 -2 -387 -3 -125 -289
c-68 -159 -124 -296 -124 -305 0 -8 61 -193 136 -411 133 -386 141 -405 350
-850 205 -438 215 -460 248 -600 19 -80 84 -354 145 -610 61 -256 123 -515
138 -576 l28 -112 188 -221 c104 -122 191 -221 194 -221 22 0 912 -142 926
-148 14 -6 -31 -40 -202 -152 l-220 -144 -221 -221 -221 -221 -119 -451 -119
-451 108 -512 107 -511 314 -314 c306 -307 316 -315 464 -411 83 -54 259 -170
391 -256 l240 -158 445 0 446 0 274 176 c151 96 302 192 335 213 50 32 67 50
101 112 23 41 171 301 329 579 158 278 371 668 474 867 102 200 189 363 192
363 3 0 9 -165 13 -367 3 -203 9 -518 13 -702 l6 -333 89 -104 c49 -57 95
-104 102 -104 7 0 44 51 83 113 l70 112 7 440 c9 645 18 957 26 948 4 -4 85
-159 180 -343 95 -184 326 -606 514 -936 l341 -601 139 -89 c77 -49 226 -144
330 -211 l191 -123 452 0 452 0 248 163 c600 395 501 318 846 664 l309 310
104 494 c57 272 104 508 104 524 0 17 -29 138 -64 270 -35 132 -87 330 -116
440 l-53 200 -206 209 -206 208 -234 155 c-128 84 -231 156 -229 158 2 3 206
36 454 75 247 39 459 73 471 75 13 3 97 93 210 226 159 186 190 227 199 267 6
26 84 351 172 722 l162 676 213 454 c212 450 216 459 352 858 l138 403 -123
287 c-68 158 -128 293 -133 300 -7 9 -97 12 -391 11 l-381 0 -753 -397z m1606
98 c62 -142 112 -264 112 -270 0 -5 -9 -10 -19 -10 -11 0 -536 -47 -1168 -105
-631 -58 -1154 -104 -1161 -103 -8 2 303 170 690 374 l703 372 366 1 366 1
111 -260z m-9458 -122 c390 -205 709 -375 710 -378 0 -3 -141 7 -312 22 -1574
142 -2060 186 -2064 190 -2 3 41 110 97 239 55 129 107 249 114 267 l14 32
365 0 366 0 710 -372z m9385 -217 c-6 -5 -30 -16 -55 -24 -25 -8 -180 -63
-345 -120 -377 -132 -822 -288 -1355 -473 -228 -80 -428 -150 -443 -156 -16
-6 -32 -7 -37 -2 -12 14 -18 574 -5 574 16 1 2239 208 2245 209 2 1 0 -3 -5
-8z m125 -15 c-8 -8 -537 -501 -1175 -1096 l-1160 -1082 -7 293 c-3 162 -8
469 -10 683 l-3 389 280 98 c154 53 514 179 800 279 882 308 945 330 1115 390
189 67 179 64 160 46z m-9860 -97 c619 -55 1128 -104 1132 -107 6 -7 -8 -562
-15 -568 -2 -2 -208 66 -458 152 -250 86 -537 184 -639 219 -490 167 -1155
397 -1159 401 -7 6 -54 10 1139 -97z m9885 -6 c-208 -611 -218 -636 -430
-1088 -114 -242 -210 -444 -214 -448 -7 -6 -516 -171 -1450 -467 l-184 -59 44
44 c50 50 2263 2115 2266 2115 1 0 -13 -44 -32 -97z m-10020 -1003 c589 -546
1095 -1017 1125 -1046 l55 -54 -841 280 -840 280 -209 446 c-116 245 -226 494
-247 552 -20 59 -77 226 -128 372 l-91 265 53 -51 c29 -28 535 -498 1123
-1044z m-932 1034 c89 -31 239 -82 332 -114 94 -32 546 -188 1005 -345 459
-158 838 -290 843 -294 7 -7 -27 -1339 -35 -1346 -2 -1 -491 452 -1088 1007
-597 556 -1119 1041 -1160 1079 -41 38 -72 69 -67 69 4 0 80 -25 170 -56z
m8519 -466 l3 -248 -55 -19 c-30 -10 -333 -116 -674 -235 -340 -119 -620 -215
-622 -213 -2 2 297 238 664 525 l667 521 7 -42 c4 -23 8 -153 10 -289z m-5615
-194 c357 -279 650 -509 653 -512 9 -9 -24 2 -490 163 -250 86 -542 186 -647
222 l-193 66 5 221 c6 221 13 346 21 346 2 0 295 -228 651 -506z m243 -421
c234 -80 431 -148 439 -153 8 -4 -51 -46 -175 -122 -104 -64 -420 -258 -703
-432 -283 -174 -516 -315 -517 -313 -2 1 6 295 16 652 11 358 20 658 20 667 0
14 41 3 248 -68 136 -47 438 -151 672 -231z m5383 10 c4 -170 10 -471 14 -671
l6 -363 -159 99 c-87 54 -401 248 -697 432 -296 183 -536 334 -534 336 3 4
223 81 1027 363 173 60 320 110 326 111 7 0 13 -96 17 -307z m-3882 -1302
c207 -234 375 -428 374 -429 -3 -3 -1125 257 -1132 262 -2 1 -223 1262 -223
1272 0 3 136 -149 303 -337 166 -189 471 -534 678 -768z m3147 687 c356 -221
665 -412 687 -426 l40 -25 -155 -37 c-85 -21 -369 -88 -630 -150 -261 -62
-555 -131 -652 -155 -144 -34 -178 -39 -178 -28 0 16 187 1184 195 1221 5 19
8 21 26 11 12 -6 312 -191 667 -411z m-4058 -222 c59 -336 103 -612 99 -614
-11 -4 -1601 368 -1611 377 -5 4 164 112 374 241 210 129 526 324 703 432 176
108 322 192 324 186 2 -6 52 -286 111 -622z m3300 482 c-119 -746 -171 -1066
-175 -1085 -4 -19 -31 -27 -237 -77 -356 -85 -908 -216 -913 -216 -3 0 99 118
227 263 128 144 431 486 672 760 242 273 441 495 443 493 3 -2 -5 -64 -17
-138z m-5762 -472 c441 -147 802 -269 802 -272 0 -6 -38 -30 -430 -270 -195
-119 -471 -289 -614 -376 -142 -87 -261 -157 -263 -154 -3 3 -34 126 -69 273
-110 455 -254 1065 -254 1070 0 3 6 3 13 1 6 -3 373 -125 815 -272z m9011 237
c-23 -104 -310 -1300 -313 -1310 -4 -11 -1336 804 -1336 817 0 3 73 28 163 57
89 28 457 146 817 261 360 116 660 210 666 211 9 1 9 -10 3 -36z m-8159 -1228
c-12 -385 -22 -701 -25 -703 -3 -3 -856 128 -937 144 -19 4 -73 60 -200 210
-95 112 -174 208 -176 213 -1 5 183 122 410 262 227 139 532 326 677 416 146
89 266 161 268 159 2 -1 -6 -317 -17 -701z m6905 437 c226 -140 524 -325 663
-411 138 -86 252 -158 252 -162 0 -3 -78 -97 -173 -209 l-173 -204 -484 -76
c-267 -43 -488 -75 -491 -71 -3 3 -11 285 -18 626 -14 777 -14 778 2 769 6 -5
197 -123 422 -262z m-474 91 c0 -93 6 -408 12 -700 11 -473 10 -532 -3 -528
-8 2 -397 106 -865 231 -467 125 -853 230 -858 234 -8 7 1679 929 1701 930 9
0 12 -40 13 -167z m-5881 63 c583 -136 1173 -276 1175 -278 4 -4 93 -523 91
-525 -3 -3 -1657 885 -1665 893 -3 4 3 4 14 1 11 -3 184 -44 385 -91z m5725
81 c-52 -35 -1577 -858 -1581 -854 -6 6 70 495 78 502 4 4 1488 361 1513 364
5 0 1 -5 -10 -12z m-5369 -447 c461 -247 840 -453 842 -458 1 -5 -50 -23 -115
-39 -65 -17 -338 -91 -608 -163 -909 -245 -1000 -269 -1003 -266 -7 7 35 1376
43 1376 1 0 380 -202 841 -450z m2513 269 c34 -56 60 -103 58 -105 -2 -3 -55
-22 -118 -43 l-114 -38 -118 40 c-65 21 -117 42 -115 46 2 4 35 51 73 104 l70
97 101 0 101 0 62 -101z m-329 -178 c45 -15 78 -31 74 -34 -13 -8 -156 -57
-166 -57 -4 0 -8 27 -8 60 0 33 4 60 8 60 5 0 46 -13 92 -29z m410 -31 c0 -33
-4 -60 -8 -60 -12 0 -149 47 -164 56 -11 7 127 61 160 63 8 1 12 -17 12 -59z
m-1200 -105 c272 -63 503 -119 513 -123 12 -5 -149 -52 -463 -136 -264 -71
-483 -126 -487 -123 -3 4 -23 105 -44 224 -21 120 -41 233 -44 251 -5 29 -4
33 12 28 10 -3 241 -57 513 -121z m2420 108 c-1 -29 -78 -494 -83 -500 -3 -2
-128 29 -279 70 -150 41 -373 101 -496 133 -141 38 -216 62 -205 66 10 4 106
27 213 53 107 25 332 79 500 119 168 41 315 74 328 75 15 1 22 -5 22 -16z
m-1240 -112 c0 -5 -18 -48 -40 -96 l-41 -87 40 -73 40 -73 -110 -82 c-61 -45
-117 -84 -125 -87 -7 -3 -62 30 -121 73 -60 43 -109 79 -111 80 -2 1 13 37 32
79 20 43 36 86 36 96 0 10 -17 52 -37 93 -20 42 -35 78 -32 81 3 3 57 22 119
44 l113 38 119 -39 c65 -22 118 -43 118 -47z m-531 -244 l22 -103 -99 -147
-99 -147 -18 -102 c-10 -57 -20 -111 -24 -120 -5 -14 -74 20 -416 203 -225
121 -414 224 -419 229 -5 5 3 12 20 16 32 8 1008 272 1010 273 1 1 11 -45 23
-102z m1111 -37 c267 -72 493 -134 504 -138 14 -6 -77 -59 -390 -229 -225
-122 -410 -220 -413 -218 -2 3 -14 57 -27 122 l-23 116 -97 144 -97 143 18 87
c19 94 22 103 33 103 4 0 226 -59 492 -130z m-473 -238 c88 -133 92 -140 107
-228 9 -51 16 -94 16 -97 0 -4 -97 64 -215 149 -118 86 -215 159 -215 162 1 9
192 150 205 151 6 0 51 -61 102 -137z m-478 53 l92 -67 -158 -117 c-87 -64
-182 -134 -211 -155 l-53 -39 6 39 c26 146 30 157 120 287 51 74 93 126 100
123 7 -2 54 -35 104 -71z m-887 -191 c222 -119 407 -220 413 -225 5 -5 -497
-9 -1230 -9 -681 0 -1236 2 -1234 4 2 2 114 34 249 70 135 36 502 135 815 220
314 85 573 155 577 155 5 1 189 -96 410 -215z m3270 -9 c441 -119 804 -218
807 -220 2 -3 -553 -5 -1234 -5 -681 0 -1235 3 -1232 6 4 4 186 105 404 225
308 169 404 217 425 214 15 -3 389 -101 830 -220z m-2030 -56 c123 -88 230
-168 240 -177 15 -16 3 -27 -175 -157 -104 -77 -213 -156 -241 -176 l-51 -36
-234 171 c-128 94 -234 175 -235 180 -1 7 460 355 471 356 1 0 102 -72 225
-161z m-813 -246 c-20 -21 -192 -206 -383 -410 -191 -205 -351 -373 -356 -373
-8 0 -1749 793 -1780 811 -9 5 534 9 1270 9 l1284 0 -35 -37z m3676 18 c-34
-16 -356 -163 -1601 -732 -83 -38 -155 -69 -160 -69 -6 0 -91 87 -190 193 -98
105 -270 290 -382 410 l-203 217 1288 -1 c1250 0 1287 -1 1248 -18z m840 -490
c104 -105 187 -192 185 -194 -3 -3 -282 -16 -620 -31 -338 -14 -631 -28 -652
-29 -33 -2 -35 -1 -26 18 12 23 403 688 424 722 14 22 17 20 256 -137 l243
-159 190 -190z m-6945 110 c121 -206 219 -375 218 -377 -2 -1 -280 9 -618 22
-338 13 -635 23 -660 24 l-45 0 200 201 c200 201 200 202 430 355 127 84 236
152 243 151 6 -1 111 -170 232 -376z m737 -36 c469 -214 851 -390 850 -391 -1
-1 -283 9 -627 22 -344 13 -639 24 -656 24 -31 0 -37 10 -250 372 -121 204
-221 375 -223 380 -2 6 10 3 25 -4 16 -8 412 -190 881 -403z m5458 398 c-3
-10 -101 -179 -217 -375 -206 -351 -211 -358 -241 -358 -47 0 -1141 -49 -1221
-54 -37 -3 -66 -3 -63 0 4 5 1731 799 1746 803 2 1 0 -7 -4 -16z m-2672 -47
c6 -41 -1 -62 -79 -238 -48 -106 -92 -205 -98 -221 l-12 -27 -125 91 c-68 49
-130 96 -138 104 -11 11 22 39 209 179 123 91 226 163 230 161 4 -3 10 -25 13
-49z m-1039 -10 c-6 -52 -3 -61 99 -292 l106 -239 69 -357 c37 -197 67 -358
65 -358 -5 0 -1076 490 -1081 494 -3 4 738 805 746 806 1 0 -1 -24 -4 -54z
m284 -114 c117 -86 209 -159 205 -162 -21 -19 -245 -182 -256 -185 -8 -3 -47
74 -105 207 -88 199 -93 214 -87 260 5 32 11 46 18 41 7 -3 108 -76 225 -161z
m1191 -272 l340 -365 -37 -16 c-20 -9 -260 -119 -531 -243 -272 -125 -498
-225 -501 -224 -4 2 24 163 62 358 l68 355 106 239 c93 210 106 243 101 279
l-6 40 29 -29 c16 -16 182 -193 369 -394z m-794 -19 c72 -52 134 -98 138 -102
7 -5 -241 -399 -273 -433 -7 -7 -285 395 -292 423 -4 14 275 221 287 213 5 -3
69 -49 140 -101z m78 -505 l-56 -287 -69 104 -69 105 123 185 c68 102 124 184
125 183 1 -1 -23 -132 -54 -290z m-360 95 l115 -173 -62 -95 c-35 -52 -67 -95
-72 -95 -7 0 -111 496 -113 542 -1 21 5 12 132 -179z m4194 153 c-10 -10
-1810 -964 -1813 -961 -3 3 519 893 530 904 4 4 266 19 584 34 649 30 708 32
699 23z m-7467 -39 c239 -8 481 -18 537 -21 l102 -6 261 -445 c144 -244 260
-446 258 -448 -3 -3 -1743 903 -1793 933 -16 10 0 12 90 7 61 -3 306 -12 545
-20z m7346 -805 c-170 -710 -195 -805 -211 -802 -9 2 -90 34 -179 72 -88 37
-411 172 -716 300 -305 128 -565 237 -577 244 -19 10 80 65 925 513 557 296
948 498 949 490 2 -6 -84 -374 -191 -817z m-7112 316 c515 -270 933 -493 929
-497 -9 -8 -1462 -627 -1482 -631 -11 -2 -23 31 -46 132 -48 200 -205 865
-280 1180 -36 151 -68 283 -71 294 -3 10 -2 17 4 15 5 -2 431 -224 946 -493z
m5894 466 c-5 -14 -530 -906 -538 -915 -4 -5 -189 186 -410 423 -221 237 -400
433 -397 436 4 4 1141 60 1285 63 35 0 62 -3 60 -7z m-4639 -32 c300 -11 546
-21 547 -23 3 -3 -796 -861 -805 -864 -5 -2 -527 878 -540 910 -2 5 50 6 125
3 71 -4 374 -16 673 -26z m6181 -300 c45 -173 92 -352 103 -396 l20 -82 -99
-472 c-54 -259 -102 -476 -105 -482 -4 -6 -77 19 -192 67 -101 42 -189 80
-195 84 -11 6 1 57 233 1021 69 289 129 540 132 558 3 18 9 30 13 25 4 -4 44
-150 90 -323z m-8315 -130 c53 -223 111 -470 131 -550 83 -348 142 -605 140
-607 -10 -11 -380 -162 -385 -157 -3 3 -51 221 -107 485 l-101 479 73 272 c39
150 87 329 105 397 24 93 35 120 41 105 4 -10 51 -201 103 -424z m3297 149
c291 -133 527 -243 526 -244 -10 -10 -1030 -575 -1037 -575 -4 0 -11 172 -15
383 -3 210 -9 448 -13 530 -3 81 -2 147 2 147 5 0 246 -109 537 -241z m2043
-149 c-4 -214 -10 -454 -14 -533 l-6 -144 -512 286 c-281 157 -513 290 -515
295 -3 7 1023 484 1046 485 4 1 5 -171 1 -389z m-2612 -170 l12 -531 -269
-149 c-148 -83 -271 -150 -275 -150 -4 0 -72 112 -153 249 l-146 249 406 436
c223 240 408 434 410 431 2 -2 9 -243 15 -535z m3064 113 c219 -236 402 -433
406 -439 7 -12 -272 -495 -289 -501 -5 -2 -128 64 -274 145 l-265 148 1 179
c2 259 16 895 19 895 2 0 183 -192 402 -427z m-1657 103 c38 -58 71 -109 72
-113 5 -14 -146 -283 -153 -275 -4 4 -39 66 -78 138 l-71 130 73 112 c39 61
75 112 79 112 4 0 39 -47 78 -104z m-404 -388 c-58 -112 -144 -280 -193 -374
-97 -188 -714 -1283 -724 -1284 -5 0 -10 169 -26 945 l-6 331 524 292 c288
160 525 292 527 292 2 0 -44 -91 -102 -202z m1591 -383 c4 -2 -26 -1247 -29
-1250 -9 -7 -647 1137 -809 1451 -104 201 -189 368 -189 369 0 2 995 -550
1027 -570z m-1330 404 l41 -77 -55 -98 c-29 -55 -58 -103 -64 -108 -5 -6 -9
73 -9 215 l0 224 23 -40 c13 -22 41 -74 64 -116z m218 -188 l-7 -114 -59 108
c-32 60 -59 112 -59 116 0 5 28 59 63 121 l62 113 3 -115 c2 -63 0 -166 -3
-229z m-163 -604 l3 -609 -61 68 -61 67 -6 291 c-4 160 -7 360 -7 444 l0 153
57 104 c32 58 61 101 64 97 4 -4 9 -281 11 -615z m101 503 l58 -110 -7 -425
-7 -426 -47 -75 -48 -75 -6 143 c-8 175 -13 1078 -6 1078 3 0 31 -50 63 -110z
m-2255 -242 c23 -161 38 -296 34 -299 -4 -4 -299 -170 -657 -369 -357 -199
-654 -365 -660 -368 -13 -8 24 33 680 737 303 324 553 590 556 591 3 0 24
-132 47 -292z m4978 -363 c624 -672 632 -680 619 -673 -62 34 -1311 732 -1313
734 -4 3 64 532 74 573 7 30 -64 102 620 -634z m273 311 c349 -146 636 -268
638 -270 4 -4 -163 -712 -175 -740 -7 -16 -106 85 -622 640 -337 362 -625 672
-639 687 l-26 28 95 -40 c52 -21 380 -159 729 -305z m-5379 329 c0 -6 -1251
-1349 -1260 -1353 -4 -1 -14 30 -23 70 -9 40 -48 207 -87 372 -39 164 -69 300
-66 303 5 6 1418 611 1429 612 4 1 7 -1 7 -4z m262 -230 c58 -99 110 -189 116
-201 10 -19 4 -25 -74 -68 -47 -26 -89 -45 -92 -41 -4 4 -23 121 -42 261 -22
154 -31 249 -25 242 7 -7 59 -94 117 -193z m4143 -64 c-19 -139 -36 -255 -37
-257 -2 -1 -42 19 -88 45 -56 31 -85 53 -84 64 2 20 237 422 241 410 2 -4 -13
-122 -32 -262z m-3422 -198 c4 -175 10 -451 13 -613 4 -162 4 -293 2 -290 -10
9 -537 908 -540 920 -2 9 490 296 513 299 3 1 9 -142 12 -316z m2877 172 c135
-75 249 -140 253 -145 8 -7 -509 -899 -535 -925 -7 -7 -8 42 -4 150 3 88 8
297 11 465 7 379 15 601 24 596 3 -2 116 -66 251 -141z m-3151 -670 c160 -273
291 -497 291 -499 0 -7 -601 -388 -605 -384 -2 2 -43 280 -89 618 -47 338 -87
624 -89 636 -3 17 13 30 87 72 50 28 96 51 102 52 6 0 142 -223 303 -495z
m3557 443 c52 -28 94 -56 94 -62 2 -38 -166 -1256 -173 -1256 -13 0 -602 380
-602 389 0 15 570 980 579 981 5 0 51 -23 102 -52z m2027 -165 l158 -67 -277
-277 c-153 -153 -279 -277 -281 -275 -3 2 148 647 163 698 6 20 -21 29 237
-79z m-7722 -129 c27 -115 63 -267 80 -338 16 -70 29 -130 27 -132 -2 -2 -123
116 -268 261 -145 145 -262 266 -260 268 10 8 365 155 368 152 2 -1 25 -97 53
-211z m1609 203 c0 -8 18 -144 40 -303 23 -159 61 -433 85 -609 25 -176 45
-326 45 -332 0 -10 -91 -13 -420 -13 l-420 0 -370 243 c-203 133 -370 244
-369 247 0 6 1391 780 1402 780 4 0 7 -6 7 -13z m4826 -321 c730 -408 786
-440 787 -451 0 -5 -159 -114 -354 -242 l-354 -232 -426 -1 -425 0 83 618 c45
339 83 623 83 630 0 8 4 12 8 10 5 -1 274 -151 598 -332z"/>
</g>
</svg>
